<mxfile host="app.diagrams.net" modified="2024-06-10T20:42:37.514Z" agent="Mozilla/5.0 (Macintosh; Intel Mac OS X 10_15_7) AppleWebKit/537.36 (KHTML, like Gecko) Chrome/125.0.0.0 Safari/537.36" etag="b06dZxp1311KUEpom2eJ" version="24.5.2" type="github">
  <diagram name="Page-1" id="MvlsOSUOAZ1vel8qD287">
    <mxGraphModel dx="33920" dy="10340" grid="1" gridSize="3.937" guides="1" tooltips="1" connect="1" arrows="1" fold="1" page="1" pageScale="1" pageWidth="13780" pageHeight="9843" math="0" shadow="0">
      <root>
        <mxCell id="0" />
        <mxCell id="3ldCkIPaAfVZW62103t2-4" parent="0" />
        <mxCell id="3ldCkIPaAfVZW62103t2-10" value="" style="rounded=0;whiteSpace=wrap;html=1;fillColor=none;strokeWidth=0;movable=0;resizable=0;rotatable=0;cloneable=0;deletable=0;" vertex="1" parent="3ldCkIPaAfVZW62103t2-4">
          <mxGeometry width="12405.487" height="9838.563" as="geometry" />
        </mxCell>
        <mxCell id="3ldCkIPaAfVZW62103t2-6" value="Боковая стойка" parent="0" />
        <mxCell id="3ldCkIPaAfVZW62103t2-12" value="" style="group;labelBackgroundColor=none;fillColor=#d5e8d4;strokeColor=#82b366;strokeWidth=0;" vertex="1" connectable="0" parent="3ldCkIPaAfVZW62103t2-6">
          <mxGeometry x="3.94" y="59.06" width="1771.65" height="9779.5" as="geometry" />
        </mxCell>
        <mxCell id="3ldCkIPaAfVZW62103t2-11" value="" style="rounded=0;whiteSpace=wrap;html=1;strokeWidth=0;fillColor=default;fillStyle=auto;" vertex="1" parent="3ldCkIPaAfVZW62103t2-12">
          <mxGeometry x="62.99699999999996" y="62.992" width="1645.666" height="9653.524" as="geometry" />
        </mxCell>
        <mxCell id="3ldCkIPaAfVZW62103t2-25" value="Антресоль" parent="0" />
        <mxCell id="3ldCkIPaAfVZW62103t2-30" value="" style="group" vertex="1" connectable="0" parent="3ldCkIPaAfVZW62103t2-25">
          <mxGeometry x="1775.5900000000006" y="59.05999999999976" width="2362.2000000000003" height="1007.8720000000001" as="geometry" />
        </mxCell>
        <mxCell id="3ldCkIPaAfVZW62103t2-26" value="" style="rounded=0;whiteSpace=wrap;html=1;fillColor=#d5e8d4;strokeColor=#82b366;strokeWidth=0;" vertex="1" parent="3ldCkIPaAfVZW62103t2-30">
          <mxGeometry width="2362.2" height="1007.872" as="geometry" />
        </mxCell>
        <mxCell id="3ldCkIPaAfVZW62103t2-27" value="" style="rounded=0;whiteSpace=wrap;html=1;strokeWidth=0;" vertex="1" parent="3ldCkIPaAfVZW62103t2-30">
          <mxGeometry x="62.996999999999844" y="62.99699999999986" width="2236.216" height="881.8879999999999" as="geometry" />
        </mxCell>
        <mxCell id="3ldCkIPaAfVZW62103t2-31" value="" style="group" vertex="1" connectable="0" parent="3ldCkIPaAfVZW62103t2-25">
          <mxGeometry x="4137.787" y="59.05699999999977" width="2362.2000000000003" height="1007.8720000000001" as="geometry" />
        </mxCell>
        <mxCell id="3ldCkIPaAfVZW62103t2-32" value="" style="rounded=0;whiteSpace=wrap;html=1;fillColor=#d5e8d4;strokeColor=#82b366;strokeWidth=0;" vertex="1" parent="3ldCkIPaAfVZW62103t2-31">
          <mxGeometry width="2362.2" height="1007.872" as="geometry" />
        </mxCell>
        <mxCell id="3ldCkIPaAfVZW62103t2-33" value="" style="rounded=0;whiteSpace=wrap;html=1;strokeWidth=0;" vertex="1" parent="3ldCkIPaAfVZW62103t2-31">
          <mxGeometry x="62.996999999999844" y="62.99699999999986" width="2236.216" height="881.8879999999999" as="geometry" />
        </mxCell>
        <mxCell id="3ldCkIPaAfVZW62103t2-34" value="" style="group" vertex="1" connectable="0" parent="3ldCkIPaAfVZW62103t2-25">
          <mxGeometry x="6499.9839999999995" y="59.053999999999775" width="2362.2000000000003" height="1007.8720000000001" as="geometry" />
        </mxCell>
        <mxCell id="3ldCkIPaAfVZW62103t2-35" value="" style="rounded=0;whiteSpace=wrap;html=1;fillColor=#d5e8d4;strokeColor=#82b366;strokeWidth=0;" vertex="1" parent="3ldCkIPaAfVZW62103t2-34">
          <mxGeometry width="2362.2" height="1007.872" as="geometry" />
        </mxCell>
        <mxCell id="3ldCkIPaAfVZW62103t2-36" value="" style="rounded=0;whiteSpace=wrap;html=1;strokeWidth=0;" vertex="1" parent="3ldCkIPaAfVZW62103t2-34">
          <mxGeometry x="62.996999999999844" y="62.99699999999986" width="2236.216" height="881.8879999999999" as="geometry" />
        </mxCell>
        <mxCell id="3ldCkIPaAfVZW62103t2-37" value="" style="group" vertex="1" connectable="0" parent="3ldCkIPaAfVZW62103t2-25">
          <mxGeometry x="8862.190999999999" y="59.05099999999977" width="2362.2000000000003" height="1007.8720000000001" as="geometry" />
        </mxCell>
        <mxCell id="3ldCkIPaAfVZW62103t2-38" value="" style="rounded=0;whiteSpace=wrap;html=1;fillColor=#d5e8d4;strokeColor=#82b366;strokeWidth=0;" vertex="1" parent="3ldCkIPaAfVZW62103t2-37">
          <mxGeometry width="2362.2" height="1007.872" as="geometry" />
        </mxCell>
        <mxCell id="3ldCkIPaAfVZW62103t2-39" value="" style="rounded=0;whiteSpace=wrap;html=1;strokeWidth=0;" vertex="1" parent="3ldCkIPaAfVZW62103t2-37">
          <mxGeometry x="62.996999999999844" y="62.99699999999986" width="2236.216" height="881.8879999999999" as="geometry" />
        </mxCell>
        <mxCell id="3ldCkIPaAfVZW62103t2-14" value="Котел" parent="0" />
        <mxCell id="3ldCkIPaAfVZW62103t2-13" value="" style="rounded=0;whiteSpace=wrap;html=1;strokeWidth=0;fillColor=#E6E6E6;" vertex="1" parent="3ldCkIPaAfVZW62103t2-14">
          <mxGeometry x="9649.587" y="590.55" width="629.92" height="629.92" as="geometry" />
        </mxCell>
        <mxCell id="3ldCkIPaAfVZW62103t2-15" value="" style="ellipse;whiteSpace=wrap;html=1;aspect=fixed;fillColor=#E6E6E6;strokeWidth=0;" vertex="1" parent="3ldCkIPaAfVZW62103t2-14">
          <mxGeometry x="9807.07" y="1.4210854715202004e-14" width="314.96" height="314.96" as="geometry" />
        </mxCell>
        <mxCell id="3ldCkIPaAfVZW62103t2-17" value="" style="rounded=0;whiteSpace=wrap;html=1;fillColor=#E6E6E6;strokeWidth=0;" vertex="1" parent="3ldCkIPaAfVZW62103t2-14">
          <mxGeometry x="9165.336" y="2440.94" width="1594.485" height="2826.766" as="geometry" />
        </mxCell>
        <mxCell id="3ldCkIPaAfVZW62103t2-18" value="" style="rounded=0;whiteSpace=wrap;html=1;strokeColor=none;fillColor=#E6E6E6;" vertex="1" parent="3ldCkIPaAfVZW62103t2-14">
          <mxGeometry x="9303.13" y="5267.71" width="1318.9" height="4570.85" as="geometry" />
        </mxCell>
        <mxCell id="3ldCkIPaAfVZW62103t2-21" value="" style="rounded=0;whiteSpace=wrap;html=1;strokeColor=none;fillColor=#E6E6E6;shadow=1;" vertex="1" parent="3ldCkIPaAfVZW62103t2-14">
          <mxGeometry x="9807.07" y="157.48" width="314.96" height="2283.46" as="geometry" />
        </mxCell>
        <mxCell id="3ldCkIPaAfVZW62103t2-22" value="" style="rounded=0;whiteSpace=wrap;html=1;strokeColor=none;fillColor=#E6E6E6;shadow=1;" vertex="1" parent="3ldCkIPaAfVZW62103t2-14">
          <mxGeometry y="216.54" width="9291.32" height="314.96" as="geometry" />
        </mxCell>
        <mxCell id="3ldCkIPaAfVZW62103t2-23" value="неизвестен отступ от левого края котла до этой трубы" style="rounded=0;whiteSpace=wrap;html=1;strokeColor=none;fillColor=#E6E6E6;shadow=1;" vertex="1" parent="3ldCkIPaAfVZW62103t2-14">
          <mxGeometry x="9291.32" y="216.54" width="314.96" height="2224.4" as="geometry" />
        </mxCell>
        <mxCell id="3ldCkIPaAfVZW62103t2-40" value="вытяжка" parent="0" />
        <mxCell id="3ldCkIPaAfVZW62103t2-41" value="" style="rounded=0;whiteSpace=wrap;html=1;fillColor=#e1d5e7;strokeColor=none;" vertex="1" parent="3ldCkIPaAfVZW62103t2-40">
          <mxGeometry x="5688.965" y="511.81" width="511.81" height="629.92" as="geometry" />
        </mxCell>
      </root>
    </mxGraphModel>
  </diagram>
</mxfile>
